<svg version="1.2" xmlns="http://www.w3.org/2000/svg" viewBox="0 0 697 628" width="697" height="628">
	<title>colored-1-svg</title>
	<defs>
		<clipPath clipPathUnits="userSpaceOnUse" id="cp1">
			<path d="m697 628h-1500v-1000h1500z"/>
		</clipPath>
	</defs>
	<style>
		.s0 { mix-blend-mode: multiply;fill: #ff599b } 
		.s1 { mix-blend-mode: multiply;fill: #fff159 } 
		.s2 { mix-blend-mode: multiply;fill: #33a3ff } 
		.s3 { mix-blend-mode: multiply;fill: #8559ff } 
		.s4 { fill: none;stroke: #ffffff;stroke-miterlimit:10;stroke-width: 2 } 
	</style>
	<g id="OBJECTS">
		<filter id="f0">
			<feFlood flood-color="#ffffff" flood-opacity="1" />
			<feBlend mode="normal" in2="SourceGraphic"/>
			<feComposite in2="SourceAlpha" operator="in" />
		</filter>
		<g id="&lt;Group&gt;" filter="url(#f0)">
			<g id="Clip-Path: &lt;Clip Group&gt;" clip-path="url(#cp1)">
				<g id="&lt;Clip Group&gt;">
					<g id="&lt;Group&gt;">
						<path id="&lt;Compound Path&gt;" fill-rule="evenodd" class="s0" d="m841.2 596.8c0 160.5-130.1 290.7-290.6 290.7-160.6 0-290.7-130.2-290.7-290.7 0-160.5 130.1-290.7 290.7-290.7 160.5 0 290.6 130.2 290.6 290.7zm-123.4 0c0-92.3-74.9-167.2-167.2-167.2-92.4 0-167.3 74.9-167.3 167.2 0 92.4 74.9 167.2 167.3 167.2 92.3 0 167.2-74.8 167.2-167.2z"/>
						<path id="&lt;Compound Path&gt;" fill-rule="evenodd" class="s1" d="m631 797.3c0 160.5-130.2 290.7-290.7 290.7-160.5 0-290.7-130.2-290.7-290.7 0-160.5 130.2-290.7 290.7-290.7 160.5 0 290.7 130.2 290.7 290.7zm-123.5 0c0-92.3-74.8-167.2-167.2-167.2-92.3 0-167.2 74.9-167.2 167.2 0 92.4 74.9 167.2 167.2 167.2 92.4 0 167.2-74.8 167.2-167.2z"/>
						<path id="&lt;Compound Path&gt;" fill-rule="evenodd" class="s1" d="m-231.2-340.7c0 125.5-101.8 227.3-227.4 227.3-125.5 0-227.3-101.8-227.3-227.3 0-125.6 101.8-227.4 227.3-227.4 125.6 0 227.4 101.8 227.4 227.4zm-100.6 0c0-70.1-56.8-126.8-126.8-126.8-70 0-126.8 56.7-126.8 126.8 0 70 56.8 126.8 126.8 126.8 70 0 126.8-56.8 126.8-126.8z"/>
						<path id="&lt;Compound Path&gt;" fill-rule="evenodd" class="s2" d="m-460.8-313.6c0 160.5-130.1 290.7-290.6 290.7-160.6 0-290.7-130.2-290.7-290.7 0-160.5 130.1-290.7 290.7-290.7 160.5 0 290.6 130.2 290.6 290.7zm-123.4 0c0-92.3-74.9-167.2-167.2-167.2-92.4 0-167.3 74.9-167.3 167.2 0 92.4 74.9 167.2 167.3 167.2 92.3 0 167.2-74.8 167.2-167.2z"/>
						<path id="&lt;Compound Path&gt;" fill-rule="evenodd" class="s3" d="m494.5 323.4c0 100.3-81.3 181.5-181.5 181.5-100.2 0-181.4-81.2-181.4-181.5 0-100.2 81.2-181.4 181.4-181.4 100.2 0 181.5 81.2 181.5 181.4zm-81.5 0c0-55.2-44.7-100-100-100-55.2 0-100 44.8-100 100 0 55.3 44.8 100.1 100 100.1 55.3 0 100-44.8 100-100.1z"/>
						<path id="&lt;Compound Path&gt;" fill-rule="evenodd" class="s2" d="m838.5 297.2c0 87.7-71.1 158.8-158.8 158.8-87.6 0-158.7-71.1-158.7-158.8 0-87.6 71.1-158.7 158.7-158.7 87.7 0 158.8 71.1 158.8 158.7zm-123.6 0c0-19.4-15.7-35.2-35.2-35.2-19.4 0-35.2 15.8-35.2 35.2 0 19.5 15.8 35.2 35.2 35.2 19.5 0 35.2-15.7 35.2-35.2z"/>
						<path id="&lt;Compound Path&gt;" fill-rule="evenodd" class="s0" d="m-490.7-4.9c0 87.6-71.1 158.7-158.8 158.7-87.7 0-158.7-71.1-158.7-158.7 0-87.7 71-158.8 158.7-158.8 87.7 0 158.8 71.1 158.8 158.8zm-123.6 0c0-19.5-15.7-35.2-35.2-35.2-19.4 0-35.2 15.7-35.2 35.2 0 19.4 15.8 35.2 35.2 35.2 19.5 0 35.2-15.8 35.2-35.2z"/>
						<path id="&lt;Path&gt;" class="s3" d="m-751.4-221.8c-50.7 0-91.8-41.1-91.8-91.8 0-50.7 41.1-91.7 91.8-91.7 50.6 0 91.7 41 91.7 91.7 0 50.7-41.1 91.8-91.7 91.8z"/>
						<path id="&lt;Path&gt;" class="s1" d="m598.7 212.4c-50.7 0-91.8-41.1-91.8-91.7 0-50.7 41.1-91.8 91.8-91.8 50.6 0 91.7 41.1 91.7 91.8 0 50.6-41.1 91.7-91.7 91.7z"/>
						<path id="&lt;Path&gt;" class="s0" d="m-412.1-20.8c-17.9 0-32.5-14.5-32.5-32.4 0-17.9 14.6-32.5 32.5-32.5 17.9 0 32.4 14.6 32.4 32.5 0 17.9-14.5 32.4-32.4 32.4z"/>
						<path id="&lt;Path&gt;" class="s0" d="m-458.6-281.7c-32.6 0-59.1-26.4-59.1-59 0-32.7 26.5-59.1 59.1-59.1 32.7 0 59.1 26.4 59.1 59.1 0 32.6-26.4 59-59.1 59z"/>
						<path id="&lt;Path&gt;" class="s3" d="m-223.9-299.8c-38.9 0-70.4-31.5-70.4-70.4 0-38.9 31.5-70.4 70.4-70.4 38.9 0 70.4 31.5 70.4 70.4 0 38.9-31.5 70.4-70.4 70.4z"/>
						<path id="&lt;Path&gt;" class="s0" d="m313 377.2c-29.7 0-53.7-24.1-53.7-53.8 0-29.7 24-53.7 53.7-53.7 29.7 0 53.8 24 53.8 53.7 0 29.7-24.1 53.8-53.8 53.8z"/>
						<path id="&lt;Path&gt;" class="s2" d="m79.4 534c-22.5 0-40.7-18.2-40.7-40.7 0-22.5 18.2-40.7 40.7-40.7 22.5 0 40.7 18.2 40.7 40.7 0 22.5-18.2 40.7-40.7 40.7z"/>
						<path id="&lt;Path&gt;" class="s3" d="m619.4 606.2c-30.1 0-54.4-24.4-54.4-54.4 0-30.1 24.3-54.4 54.4-54.4 30 0 54.4 24.3 54.4 54.4 0 30-24.4 54.4-54.4 54.4z"/>
						<path id="&lt;Path&gt;" class="s3" d="m-808.2 178.8c-38.9 0-70.5-31.5-70.5-70.4 0-38.9 31.6-70.4 70.5-70.4 38.8 0 70.4 31.5 70.4 70.4 0 38.9-31.6 70.4-70.4 70.4z"/>
						<path id="&lt;Path&gt;" fill-rule="evenodd" class="s4" d="m812 684.1c0 168.4-136.6 305-305.1 305-168.5 0-305.1-136.6-305.1-305 0-168.5 136.6-305.1 305.1-305.1 168.5 0 305.1 136.6 305.1 305.1z"/>
						<path id="&lt;Path&gt;" fill-rule="evenodd" class="s4" d="m609.8 746.9c0 105.6-85.5 191.1-191.1 191.1-105.5 0-191.1-85.5-191.1-191.1 0-105.5 85.6-191.1 191.1-191.1 105.6 0 191.1 85.6 191.1 191.1z"/>
						<path id="&lt;Path&gt;" fill-rule="evenodd" class="s4" d="m923.4 224.1c0 102.9-83.5 186.4-186.4 186.4-103 0-186.4-83.5-186.4-186.4 0-103 83.4-186.4 186.4-186.4 102.9 0 186.4 83.4 186.4 186.4z"/>
						<path id="&lt;Path&gt;" fill-rule="evenodd" class="s4" d="m-570.8-50.9c0 116.2-94.1 210.4-210.3 210.4-116.2 0-210.3-94.2-210.3-210.4 0-116.1 94.1-210.3 210.3-210.3 116.2 0 210.3 94.2 210.3 210.3z"/>
						<path id="&lt;Path&gt;" fill-rule="evenodd" class="s4" d="m-705.8-20.8c0 75.8-61.5 137.3-137.4 137.3-75.8 0-137.3-61.5-137.3-137.3 0-75.9 61.5-137.4 137.3-137.4 75.9 0 137.4 61.5 137.4 137.4z"/>
						<path id="&lt;Path&gt;" fill-rule="evenodd" class="s4" d="m-248.2-386.9c0 116.2-94.2 210.4-210.4 210.4-116.1 0-210.3-94.2-210.3-210.4 0-116.1 94.2-210.3 210.3-210.3 116.2 0 210.4 94.2 210.4 210.3z"/>
					</g>
				</g>
			</g>
		</g>
	</g>
</svg>